<svg width="57" height="57" viewBox="0 0 57 57" fill="none" xmlns="http://www.w3.org/2000/svg">
<path d="M56.417 27.0337L43.2356 13.0687C42.4255 12.2094 41.0732 12.1702 40.214 12.981C39.3561 13.7912 39.3162 15.1442 40.127 16.0027L51.924 28.5001L40.127 40.9988C39.3162 41.8574 39.3561 43.2097 40.214 44.0205C40.6272 44.4103 41.1551 44.6033 41.6811 44.6033C42.2489 44.6033 42.8161 44.3782 43.2358 43.9342L56.4171 29.9685C57.1943 29.1442 57.1943 27.8574 56.417 27.0337Z" fill="white"/>
<path d="M16.8737 40.9982L5.07749 28.5001L16.8737 16.0021C17.6838 15.1435 17.6446 13.7904 16.786 12.9804C15.9281 12.1702 14.5744 12.2094 13.7644 13.068L0.583034 27.0331C-0.194263 27.8567 -0.194263 29.1442 0.583034 29.9679L13.765 43.9337C14.1854 44.379 14.7518 44.6034 15.3197 44.6034C15.8455 44.6034 16.3736 44.4096 16.786 44.0198C17.6454 43.2097 17.6838 41.8567 16.8737 40.9982Z" fill="white"/>
<path d="M31.9581 5.86669C30.7917 5.69001 29.7002 6.4908 29.522 7.65719L23.252 48.6974C23.0739 49.8645 23.8754 50.9554 25.0425 51.1335C25.1523 51.1499 25.2605 51.1578 25.3681 51.1578C26.4063 51.1578 27.3168 50.4004 27.4786 49.343L33.7486 8.30279C33.9268 7.13562 33.1252 6.04482 31.9581 5.86669Z" fill="white"/>
</svg>
