<svg width="152" height="152" viewBox="0 0 152 152" fill="none" xmlns="http://www.w3.org/2000/svg">
<path d="M111.101 79.1893L114.832 75.4585C114.833 75.4573 114.835 75.4561 114.836 75.4549C114.837 75.4537 114.838 75.4525 114.839 75.4514L128 62.2903C128.001 62.2894 128.002 62.2888 128.003 62.2882C128.004 62.2876 128.004 62.2867 128.005 62.2858L141.168 49.1224C141.169 49.1221 141.169 49.1218 141.169 49.1215C141.169 49.1212 141.17 49.1209 141.17 49.1206L148.4 41.8902C150.722 39.5693 152 36.4829 152 33.2004C152 29.9179 150.721 26.8315 148.4 24.5109L127.49 3.59988C125.169 1.27891 122.082 0.00026973 118.8 0.00026973C115.517 0.00026973 112.431 1.27861 110.11 3.59988L72.8107 40.8987L47.4935 15.5812C43.2553 11.343 37.9436 8.32613 32.1323 6.8569L5.54473 0.135942C4.02473 -0.248512 2.4133 0.195317 1.30447 1.30474C0.195344 2.41357 -0.248484 4.02411 0.135969 5.54471L6.85722 32.1322C8.32616 37.9433 11.343 43.2553 15.5812 47.4935L40.8987 72.8107L3.59931 110.11C1.27834 112.431 0 115.517 0 118.8C0 122.082 1.27834 125.168 3.59961 127.489L24.5106 148.4C26.8319 150.722 29.9179 152 33.2007 152C36.4833 152 39.5693 150.722 41.8903 148.4L62.2787 128.012C62.282 128.009 62.285 128.006 62.2882 128.003C62.2915 128 62.2945 127.997 62.2974 127.993L79.1893 111.102L113.478 145.391C117.877 149.79 123.656 151.99 129.435 151.99C135.213 151.99 140.992 149.79 145.391 145.391C154.189 136.593 154.189 122.277 145.391 113.479L111.101 79.1893ZM15.4915 29.9496L10.6002 10.6005L29.9493 15.4921C34.2039 16.5674 38.0926 18.7761 41.1956 21.8791L44.7064 25.3899L25.3893 44.707L21.8785 41.1961C18.7756 38.0929 16.5671 34.2041 15.4915 29.9496V29.9496ZM31.687 51.0043L51.004 31.6872L66.5131 47.1963L47.196 66.5133L31.687 51.0043ZM33.2007 143.094C32.297 143.094 31.4477 142.742 30.8085 142.103L9.89722 121.192C9.25834 120.553 8.90655 119.703 8.90655 118.8C8.90655 117.896 9.25834 117.046 9.89722 116.407L116.407 9.89719C117.046 9.25832 117.896 8.90622 118.8 8.90622C119.704 8.90622 120.553 9.25832 121.192 9.89719L142.103 30.8085C142.742 31.4471 143.094 32.2967 143.094 33.2004C143.094 34.1041 142.742 34.9537 142.103 35.5929L138.021 39.6752L124.437 26.0908C122.698 24.3517 119.878 24.3517 118.139 26.0908C116.4 27.8296 116.4 30.6494 118.139 32.3884L131.723 45.9729L124.854 52.842L117.853 45.8413C116.114 44.1019 113.295 44.1025 111.556 45.8413C109.816 47.5804 109.816 50.3999 111.556 52.139L118.556 59.1396L111.687 66.0087L98.1032 52.4243C96.3641 50.6852 93.5447 50.6852 91.8056 52.4243C90.0665 54.163 90.0665 56.9828 91.8056 58.7219L105.39 72.306L98.5206 79.1751L91.5197 72.1745C89.7809 70.4357 86.9612 70.4357 85.2221 72.1745C83.483 73.9133 83.483 76.733 85.2221 78.4721L92.2227 85.4727L85.4727 92.2227L71.8886 78.6386C70.1495 76.8995 67.3301 76.8995 65.591 78.6386C63.8519 80.3774 63.8519 83.1971 65.591 84.9362L79.1751 98.5203L72.306 105.389L65.3054 98.3888C63.5666 96.65 60.7469 96.65 59.0078 98.3888C57.2687 100.128 57.2687 102.947 59.0078 104.686L66.0084 111.687L59.1393 118.556L45.5555 104.972C43.8167 103.234 40.997 103.234 39.2579 104.972C37.5188 106.711 37.5188 109.531 39.2579 111.27L52.8417 124.854L45.9726 131.723L38.972 124.722C37.2332 122.983 34.4135 122.983 32.6744 124.722C30.9353 126.461 30.9353 129.281 32.6744 131.02L39.675 138.02L35.5926 142.103C34.9538 142.742 34.1041 143.094 33.2007 143.094V143.094ZM88.6035 101.687C88.6098 101.681 88.6157 101.676 88.6219 101.669C88.6282 101.663 88.6341 101.657 88.64 101.651L101.665 88.6264C101.666 88.6246 101.668 88.6231 101.67 88.6213C101.671 88.6196 101.673 88.6181 101.675 88.6163L104.804 85.4869L123.674 104.357L104.357 123.674L85.4869 104.804L88.6035 101.687ZM139.093 139.093C133.767 144.419 125.102 144.419 119.776 139.093L110.655 129.971L129.972 110.654L139.093 119.776C144.419 125.102 144.419 133.767 139.093 139.093V139.093Z" fill="white"/>
</svg>
