<svg width="126" height="21" viewBox="0 0 126 21" fill="none" xmlns="http://www.w3.org/2000/svg">
<path d="M2.84 5.6H0.28V0.255999H8.12V2.816H2.84V5.6ZM11.48 0.351999H14.04V13.088C14.04 14.0267 13.8693 14.912 13.528 15.744C13.1867 16.576 12.6853 17.312 12.024 17.952C11.3627 18.6133 10.616 19.1147 9.784 19.456C8.952 19.7973 8.07733 19.968 7.16 19.968C6.22133 19.968 5.336 19.7973 4.504 19.456C3.672 19.1147 2.936 18.6133 2.296 17.952C1.63467 17.312 1.13333 16.576 0.792 15.744C0.450667 14.912 0.28 14.0267 0.28 13.088V7.296H2.84H8.12V9.856H2.84V13.088C2.84 13.6853 2.94667 14.2507 3.16 14.784C3.39467 15.296 3.704 15.7547 4.088 16.16C4.49333 16.544 4.952 16.8533 5.464 17.088C5.99733 17.3013 6.56267 17.408 7.16 17.408C7.75733 17.408 8.312 17.3013 8.824 17.088C9.35733 16.8533 9.816 16.544 10.2 16.16C10.6053 15.7547 10.9147 15.296 11.128 14.784C11.3627 14.2507 11.48 13.6853 11.48 13.088V0.351999ZM30.0325 0.351999V20.096L20.3045 12.16V8.832L27.4725 14.72V0.351999H30.0325ZM26.3205 11.456L19.1525 5.6V19.968H16.5925V0.191999L26.3205 8.16V11.456ZM42.4165 2.912C41.2858 2.912 40.2192 3.15733 39.2165 3.648C38.2138 4.11733 37.3712 4.8 36.6885 5.696L34.6725 4.128C35.6112 2.93333 36.7312 2.016 38.0325 1.376C39.3765 0.693333 40.8378 0.351999 42.4165 0.351999C44.2725 0.351999 46.0005 0.842666 47.6005 1.824L46.2565 4C45.1258 3.27467 43.8458 2.912 42.4165 2.912ZM36.6885 7.52H48.2085V18.112L47.6005 18.496C46.0005 19.4773 44.2725 19.968 42.4165 19.968C41.0938 19.968 39.8352 19.7227 38.6405 19.232C37.4672 18.7413 36.4112 18.0267 35.4725 17.088C34.5338 16.1493 33.8192 15.0933 33.3285 13.92C32.8378 12.7253 32.5925 11.4667 32.5925 10.144C32.5925 8.69333 32.9232 7.27467 33.5845 5.888L35.8885 7.008C35.3978 7.98933 35.1525 9.03467 35.1525 10.144C35.1525 11.1467 35.3445 12.096 35.7285 12.992C36.1125 13.8667 36.6245 14.6347 37.2645 15.296C37.9258 15.936 38.6938 16.448 39.5685 16.832C40.4645 17.216 41.4138 17.408 42.4165 17.408C43.5472 17.408 44.6245 17.1627 45.6485 16.672V10.08H41.1685L43.7605 14.432H40.7845L36.6885 7.52ZM52.924 2.912H51.196V0.351999H57.212V2.912H55.484V13.664H52.924V2.912ZM59.9 14.368H62.46V19.968H50.14L52.636 14.784H55.484L54.204 17.408H59.9V14.368ZM69.1618 17.408H70.8898V19.968H64.8738V17.408H66.6018V14.208H69.1618V17.408ZM64.8738 0.351999H70.8898V2.912H69.1618V12.864H66.6018V2.912H64.8738V0.351999ZM79.3073 17.408V2.912H73.4513V0.351999H81.8673V17.408H83.5953V19.968H77.6113V17.408H79.3073ZM82.8913 0.351999H87.7553V2.912H82.8913V0.351999ZM98.5415 0.351999C99.4588 0.351999 100.355 0.479999 101.23 0.735998C102.104 0.970666 102.926 1.33333 103.694 1.824L104.878 2.56L97.5175 12.32L95.4695 10.784L101.07 3.36C100.664 3.18933 100.248 3.072 99.8215 3.008C99.3948 2.944 98.9682 2.912 98.5415 2.912C97.3895 2.912 96.3122 3.15733 95.3095 3.648C94.3282 4.11733 93.4855 4.8 92.7815 5.696L90.7655 4.128C91.6828 2.95467 92.8028 2.03733 94.1255 1.376C95.4695 0.693333 96.9415 0.351999 98.5415 0.351999ZM98.5415 17.408C99.8855 17.408 101.155 17.0453 102.35 16.32L103.694 18.496C102.115 19.4773 100.398 19.968 98.5415 19.968C97.2188 19.968 95.9602 19.7227 94.7655 19.232C93.5922 18.7413 92.5362 18.0267 91.5975 17.088C90.6588 16.1493 89.9442 15.0933 89.4535 13.92C88.9628 12.7253 88.7175 11.4667 88.7175 10.144C88.7175 8.62933 89.0375 7.21067 89.6775 5.888L91.9815 7.008C91.7468 7.49867 91.5655 8.01067 91.4375 8.544C91.3308 9.056 91.2775 9.58933 91.2775 10.144C91.2775 11.1467 91.4695 12.096 91.8535 12.992C92.2375 13.8667 92.7495 14.6347 93.3895 15.296C94.0508 15.936 94.8188 16.448 95.6935 16.832C96.5895 17.216 97.5388 17.408 98.5415 17.408ZM113.484 0.351999H119.916V19.968H117.356V8.992H107.436V0.32H109.996V6.432H117.356V2.912H113.484V0.351999ZM107.436 10.688H115.724V13.248H109.996V19.968H107.436V10.688Z" fill="white"/>
<path d="M122.468 17.408H125.028V19.968H122.468V17.408Z" fill="#01FFFF"/>
</svg>
