<svg width="161" height="155" viewBox="0 0 161 155" fill="none" xmlns="http://www.w3.org/2000/svg">
<path d="M133.969 24.0745H151.973C153.645 24.0745 155 22.7193 155 21.0471V3.02734C155 1.35521 153.645 0 151.973 0H133.969C132.297 0 130.942 1.35521 130.942 3.02734V9.0099H89.529V3.02734C89.529 1.35521 88.1738 0 86.5016 0H68.4984C66.8262 0 65.471 1.35521 65.471 3.02734V9.0099H24.0579V3.02734C24.0579 1.35521 22.7027 0 21.0306 0H3.02734C1.35521 0 0 1.35521 0 3.02734V21.0471C0 22.7193 1.35521 24.0745 3.02734 24.0745H21.0306C22.7027 24.0745 24.0579 22.7193 24.0579 21.0471V15.0646H49.2416C40.3736 19.0853 32.3784 24.991 25.8637 32.4588C15.6488 44.1685 9.74308 58.9859 9.06075 74.4727H3.02734C1.35521 74.4727 0 75.8279 0 77.5V95.5198C0 97.1919 1.35521 98.5471 3.02734 98.5471H21.0306C22.7027 98.5471 24.0579 97.1919 24.0579 95.5198V77.5C24.0579 75.8279 22.7027 74.4727 21.0306 74.4727H15.1225C16.5179 45.9435 37.5048 21.6502 65.471 16.1892V21.0483C65.471 22.7205 66.8262 24.0757 68.4984 24.0757H86.5016C88.1738 24.0757 89.529 22.7205 89.529 21.0483V16.1892C117.495 21.6502 138.482 45.9435 139.877 74.4727H133.969C132.297 74.4727 130.942 75.8279 130.942 77.5V95.5198C130.942 97.1919 132.297 98.5471 133.969 98.5471H151.973C153.645 98.5471 155 97.1919 155 95.5198V77.5C155 75.8279 153.645 74.4727 151.973 74.4727H145.939C145.257 58.9859 139.351 44.1685 129.136 32.4588C122.622 24.991 114.626 19.0853 105.758 15.0646H130.942V21.0483C130.942 22.7193 132.297 24.0745 133.969 24.0745ZM18.0032 18.0198H6.05469V6.05469H18.0032V18.0198ZM18.0032 92.4924H6.05469V80.5273H18.0032V92.4924ZM148.945 92.4924H136.997V80.5273H148.945V92.4924ZM83.4743 18.0198H71.5257V6.05469H83.4743V18.0198ZM136.997 6.05469H148.945V18.0198H136.997V6.05469Z" fill="#FF00FE"/>
<path d="M80.1513 33.354C79.6192 32.3878 78.6034 31.7871 77.5 31.7871C76.3967 31.7871 75.3809 32.3878 74.8488 33.354L62.2746 56.1821C61.4681 57.6472 62.0015 59.4885 63.4667 60.2938C64.9295 61.1003 66.7719 60.5682 67.5784 59.103L74.4727 46.5856V68.9111C70.2699 70.2072 67.2071 74.1273 67.2071 78.75C67.2071 84.425 71.825 89.0429 77.5 89.0429C83.1751 89.0429 87.793 84.425 87.793 78.75C87.793 74.1273 84.7302 70.2072 80.5274 68.9111V46.5856L101.297 84.295C94.4733 91.1964 89.8223 100.049 88.0153 109.59H66.9848C65.1766 100.049 60.5256 91.1964 53.7035 84.295L57.1731 77.9955C57.9796 76.5315 57.4463 74.6902 55.9823 73.8837C54.5182 73.0772 52.6758 73.6094 51.8693 75.0746L47.281 83.4069C46.6069 84.6296 46.8576 86.1563 47.8877 87.1C54.4071 93.0707 58.9339 100.98 60.8071 109.59H57.9879C52.9797 109.59 48.9058 113.665 48.9058 118.672C48.9058 122.205 50.9339 125.271 53.8868 126.771V151.973C53.8868 153.645 55.242 155 56.9141 155C58.5862 155 59.9415 153.645 59.9415 151.973V127.754H95.0586V151.973C95.0586 153.645 96.4138 155 98.086 155C99.7581 155 101.113 153.645 101.113 151.973V126.771C104.066 125.271 106.094 122.204 106.094 118.672C106.094 113.664 102.02 109.59 97.0122 109.59H94.193C96.0662 100.978 100.593 93.0707 107.112 87.0988C108.142 86.1551 108.393 84.6296 107.719 83.4057L80.1513 33.354ZM77.5 82.9882C75.1633 82.9882 73.2618 81.0867 73.2618 78.75C73.2618 76.412 75.1633 74.5117 77.5 74.5117C79.8368 74.5117 81.7383 76.412 81.7383 78.75C81.7383 81.0867 79.8368 82.9882 77.5 82.9882ZM100.04 118.672C100.04 120.342 98.682 121.699 97.0122 121.699H57.9879C56.3181 121.699 54.9605 120.342 54.9605 118.672C54.9605 117.002 56.3181 115.645 57.9879 115.645H97.0122C98.682 115.645 100.04 117.002 100.04 118.672Z" fill="#FF00FE"/>
<path d="M59.5264 70.271C60.3234 70.271 61.1039 69.9493 61.6668 69.3864C62.2297 68.82 62.5537 68.0431 62.5537 67.2437C62.5537 66.4466 62.2297 65.6697 61.6668 65.1032C61.1039 64.5403 60.3234 64.2163 59.5264 64.2163C58.727 64.2163 57.9465 64.5403 57.3836 65.1032C56.8207 65.6697 56.499 66.4466 56.499 67.2437C56.499 68.0431 56.8207 68.82 57.3836 69.3864C57.9465 69.9493 58.727 70.271 59.5264 70.271Z" fill="#FF00FE"/>
<path d="M139.969 24.0745H157.973C159.645 24.0745 161 22.7193 161 21.0471V3.02734C161 1.35521 159.645 0 157.973 0H139.969C138.297 0 136.942 1.35521 136.942 3.02734V9.0099H95.529V3.02734C95.529 1.35521 94.1738 0 92.5016 0H74.4984C72.8262 0 71.471 1.35521 71.471 3.02734V9.0099H30.0579V3.02734C30.0579 1.35521 28.7027 0 27.0306 0H9.02734C7.35521 0 6 1.35521 6 3.02734V21.0471C6 22.7193 7.35521 24.0745 9.02734 24.0745H27.0306C28.7027 24.0745 30.0579 22.7193 30.0579 21.0471V15.0646H55.2416C46.3736 19.0853 38.3784 24.991 31.8637 32.4588C21.6488 44.1685 15.7431 58.9859 15.0607 74.4727H9.02734C7.35521 74.4727 6 75.8279 6 77.5V95.5198C6 97.1919 7.35521 98.5471 9.02734 98.5471H27.0306C28.7027 98.5471 30.0579 97.1919 30.0579 95.5198V77.5C30.0579 75.8279 28.7027 74.4727 27.0306 74.4727H21.1225C22.5179 45.9435 43.5048 21.6502 71.471 16.1892V21.0483C71.471 22.7205 72.8262 24.0757 74.4984 24.0757H92.5016C94.1738 24.0757 95.529 22.7205 95.529 21.0483V16.1892C123.495 21.6502 144.482 45.9435 145.877 74.4727H139.969C138.297 74.4727 136.942 75.8279 136.942 77.5V95.5198C136.942 97.1919 138.297 98.5471 139.969 98.5471H157.973C159.645 98.5471 161 97.1919 161 95.5198V77.5C161 75.8279 159.645 74.4727 157.973 74.4727H151.939C151.257 58.9859 145.351 44.1685 135.136 32.4588C128.622 24.991 120.626 19.0853 111.758 15.0646H136.942V21.0483C136.942 22.7193 138.297 24.0745 139.969 24.0745ZM24.0032 18.0198H12.0547V6.05469H24.0032V18.0198ZM24.0032 92.4924H12.0547V80.5273H24.0032V92.4924ZM154.945 92.4924H142.997V80.5273H154.945V92.4924ZM89.4743 18.0198H77.5257V6.05469H89.4743V18.0198ZM142.997 6.05469H154.945V18.0198H142.997V6.05469Z" fill="#01FFFF"/>
<path d="M86.1513 33.354C85.6192 32.3878 84.6034 31.7871 83.5 31.7871C82.3967 31.7871 81.3809 32.3878 80.8488 33.354L68.2746 56.1821C67.4681 57.6472 68.0015 59.4885 69.4667 60.2938C70.9295 61.1003 72.7719 60.5682 73.5784 59.103L80.4727 46.5856V68.9111C76.2699 70.2072 73.2071 74.1273 73.2071 78.75C73.2071 84.425 77.825 89.0429 83.5 89.0429C89.1751 89.0429 93.793 84.425 93.793 78.75C93.793 74.1273 90.7302 70.2072 86.5274 68.9111V46.5856L107.297 84.295C100.473 91.1964 95.8223 100.049 94.0153 109.59H72.9848C71.1766 100.049 66.5256 91.1964 59.7035 84.295L63.1731 77.9955C63.9796 76.5315 63.4463 74.6902 61.9823 73.8837C60.5182 73.0772 58.6758 73.6094 57.8693 75.0746L53.281 83.4069C52.6069 84.6296 52.8576 86.1563 53.8877 87.1C60.4071 93.0707 64.9339 100.98 66.8071 109.59H63.9879C58.9797 109.59 54.9058 113.665 54.9058 118.672C54.9058 122.205 56.9339 125.271 59.8868 126.771V151.973C59.8868 153.645 61.242 155 62.9141 155C64.5862 155 65.9415 153.645 65.9415 151.973V127.754H101.059V151.973C101.059 153.645 102.414 155 104.086 155C105.758 155 107.113 153.645 107.113 151.973V126.771C110.066 125.271 112.094 122.204 112.094 118.672C112.094 113.664 108.02 109.59 103.012 109.59H100.193C102.066 100.978 106.593 93.0707 113.112 87.0988C114.142 86.1551 114.393 84.6296 113.719 83.4057L86.1513 33.354ZM83.5 82.9882C81.1633 82.9882 79.2618 81.0867 79.2618 78.75C79.2618 76.412 81.1633 74.5117 83.5 74.5117C85.8368 74.5117 87.7383 76.412 87.7383 78.75C87.7383 81.0867 85.8368 82.9882 83.5 82.9882ZM106.04 118.672C106.04 120.342 104.682 121.699 103.012 121.699H63.9879C62.3181 121.699 60.9605 120.342 60.9605 118.672C60.9605 117.002 62.3181 115.645 63.9879 115.645H103.012C104.682 115.645 106.04 117.002 106.04 118.672Z" fill="#01FFFF"/>
<path d="M65.5264 70.271C66.3234 70.271 67.1039 69.9493 67.6668 69.3864C68.2297 68.82 68.5537 68.0431 68.5537 67.2437C68.5537 66.4466 68.2297 65.6697 67.6668 65.1032C67.1039 64.5403 66.3234 64.2163 65.5264 64.2163C64.727 64.2163 63.9465 64.5403 63.3836 65.1032C62.8207 65.6697 62.499 66.4466 62.499 67.2437C62.499 68.0431 62.8207 68.82 63.3836 69.3864C63.9465 69.9493 64.727 70.271 65.5264 70.271Z" fill="#01FFFF"/>
<path d="M136.969 24.0745H154.973C156.645 24.0745 158 22.7193 158 21.0471V3.02734C158 1.35521 156.645 0 154.973 0H136.969C135.297 0 133.942 1.35521 133.942 3.02734V9.0099H92.529V3.02734C92.529 1.35521 91.1738 0 89.5016 0H71.4984C69.8262 0 68.471 1.35521 68.471 3.02734V9.0099H27.0579V3.02734C27.0579 1.35521 25.7027 0 24.0306 0H6.02734C4.35521 0 3 1.35521 3 3.02734V21.0471C3 22.7193 4.35521 24.0745 6.02734 24.0745H24.0306C25.7027 24.0745 27.0579 22.7193 27.0579 21.0471V15.0646H52.2416C43.3736 19.0853 35.3784 24.991 28.8637 32.4588C18.6488 44.1685 12.7431 58.9859 12.0607 74.4727H6.02734C4.35521 74.4727 3 75.8279 3 77.5V95.5198C3 97.1919 4.35521 98.5471 6.02734 98.5471H24.0306C25.7027 98.5471 27.0579 97.1919 27.0579 95.5198V77.5C27.0579 75.8279 25.7027 74.4727 24.0306 74.4727H18.1225C19.5179 45.9435 40.5048 21.6502 68.471 16.1892V21.0483C68.471 22.7205 69.8262 24.0757 71.4984 24.0757H89.5016C91.1738 24.0757 92.529 22.7205 92.529 21.0483V16.1892C120.495 21.6502 141.482 45.9435 142.877 74.4727H136.969C135.297 74.4727 133.942 75.8279 133.942 77.5V95.5198C133.942 97.1919 135.297 98.5471 136.969 98.5471H154.973C156.645 98.5471 158 97.1919 158 95.5198V77.5C158 75.8279 156.645 74.4727 154.973 74.4727H148.939C148.257 58.9859 142.351 44.1685 132.136 32.4588C125.622 24.991 117.626 19.0853 108.758 15.0646H133.942V21.0483C133.942 22.7193 135.297 24.0745 136.969 24.0745ZM21.0032 18.0198H9.05469V6.05469H21.0032V18.0198ZM21.0032 92.4924H9.05469V80.5273H21.0032V92.4924ZM151.945 92.4924H139.997V80.5273H151.945V92.4924ZM86.4743 18.0198H74.5257V6.05469H86.4743V18.0198ZM139.997 6.05469H151.945V18.0198H139.997V6.05469Z" fill="white"/>
<path d="M83.1513 33.354C82.6192 32.3878 81.6034 31.7871 80.5 31.7871C79.3967 31.7871 78.3809 32.3878 77.8488 33.354L65.2746 56.1821C64.4681 57.6472 65.0015 59.4885 66.4667 60.2938C67.9295 61.1003 69.7719 60.5682 70.5784 59.103L77.4727 46.5856V68.9111C73.2699 70.2072 70.2071 74.1273 70.2071 78.75C70.2071 84.425 74.825 89.0429 80.5 89.0429C86.1751 89.0429 90.793 84.425 90.793 78.75C90.793 74.1273 87.7302 70.2072 83.5274 68.9111V46.5856L104.297 84.295C97.4733 91.1964 92.8223 100.049 91.0153 109.59H69.9848C68.1766 100.049 63.5256 91.1964 56.7035 84.295L60.1731 77.9955C60.9796 76.5315 60.4463 74.6902 58.9823 73.8837C57.5182 73.0772 55.6758 73.6094 54.8693 75.0746L50.281 83.4069C49.6069 84.6296 49.8576 86.1563 50.8877 87.1C57.4071 93.0707 61.9339 100.98 63.8071 109.59H60.9879C55.9797 109.59 51.9058 113.665 51.9058 118.672C51.9058 122.205 53.9339 125.271 56.8868 126.771V151.973C56.8868 153.645 58.242 155 59.9141 155C61.5862 155 62.9415 153.645 62.9415 151.973V127.754H98.0586V151.973C98.0586 153.645 99.4138 155 101.086 155C102.758 155 104.113 153.645 104.113 151.973V126.771C107.066 125.271 109.094 122.204 109.094 118.672C109.094 113.664 105.02 109.59 100.012 109.59H97.193C99.0662 100.978 103.593 93.0707 110.112 87.0988C111.142 86.1551 111.393 84.6296 110.719 83.4057L83.1513 33.354ZM80.5 82.9882C78.1633 82.9882 76.2618 81.0867 76.2618 78.75C76.2618 76.412 78.1633 74.5117 80.5 74.5117C82.8368 74.5117 84.7383 76.412 84.7383 78.75C84.7383 81.0867 82.8368 82.9882 80.5 82.9882ZM103.04 118.672C103.04 120.342 101.682 121.699 100.012 121.699H60.9879C59.3181 121.699 57.9605 120.342 57.9605 118.672C57.9605 117.002 59.3181 115.645 60.9879 115.645H100.012C101.682 115.645 103.04 117.002 103.04 118.672Z" fill="white"/>
<path d="M62.5264 70.271C63.3234 70.271 64.1039 69.9493 64.6668 69.3864C65.2297 68.82 65.5537 68.0431 65.5537 67.2437C65.5537 66.4466 65.2297 65.6697 64.6668 65.1032C64.1039 64.5403 63.3234 64.2163 62.5264 64.2163C61.727 64.2163 60.9465 64.5403 60.3836 65.1032C59.8207 65.6697 59.499 66.4466 59.499 67.2437C59.499 68.0431 59.8207 68.82 60.3836 69.3864C60.9465 69.9493 61.727 70.271 62.5264 70.271Z" fill="white"/>
</svg>
