<svg width="144" height="160" viewBox="0 0 144 160" fill="none" xmlns="http://www.w3.org/2000/svg">
<path d="M92.7308 33.8046C89.133 37.5547 82.658 37.5544 79.0603 33.8046C76.0078 30.9862 71.8181 35.1803 74.6352 38.2296C80.5627 44.407 91.2284 44.407 97.1558 38.2296C99.9742 35.1772 95.7801 30.9871 92.7308 33.8046V33.8046Z" fill="#FF00FE"/>
<path d="M137.668 94.9642C137.668 85.7603 133.207 77.403 125.798 72.3088C134.85 61.2451 131.669 43.8695 119.405 36.6402C122.229 23.3751 109.834 11.0878 96.5971 14.0101C92.3739 -6.31475 63.1856 -3.85804 62.577 17.0581V63.7719C62.7422 67.9232 68.6709 67.92 68.8346 63.7719V17.0581C69.3477 3.03277 89.2047 2.453 90.5886 16.357C87.7818 18.0346 85.4605 20.3884 83.8067 23.2528C82.9425 24.7493 83.4553 26.6628 84.9518 27.5267C86.4217 28.383 88.3569 27.8918 89.2257 26.3815C90.5786 24.0384 92.5926 22.2012 95.0502 21.0686C95.0837 21.0532 95.1166 21.037 95.1491 21.0207C105.435 16.3532 116.479 26.3881 112.825 37.0744C112.811 37.112 112.796 37.1495 112.783 37.188C111.754 40.1278 109.703 42.6042 107.005 44.1614C105.509 45.0256 104.996 46.9388 105.86 48.4356C106.729 49.9459 108.664 50.4368 110.134 49.5811C113.047 47.8993 115.451 45.4933 117.131 42.6255C125.85 48.5514 127.376 61.5652 120.138 69.3136C119.196 68.9463 118.234 68.6306 117.26 68.37C115.591 67.9222 113.876 68.9131 113.429 70.5823C112.981 72.2512 113.972 73.967 115.641 74.4141C116.952 74.7655 118.236 75.2454 119.457 75.8405C119.501 75.8621 119.545 75.8821 119.59 75.9015C135.889 83.832 135.041 107.845 118.254 114.635C118.206 114.652 118.157 114.67 118.108 114.69C113.856 116.422 109.061 116.71 104.628 115.516C102.958 115.068 101.243 116.059 100.796 117.728C100.348 119.397 101.339 121.113 103.008 121.56C107.395 122.741 112.108 122.807 116.515 121.751C116.396 130.434 110.164 137.715 101.597 139.146C101.569 139.15 101.542 139.154 101.514 139.158C99.016 139.568 96.4319 139.439 93.9886 138.784C92.3188 138.337 90.6039 139.327 90.1565 140.997C89.7091 142.665 90.6997 144.381 92.3689 144.829C94.0622 145.282 95.8008 145.55 97.5504 145.628C90.1449 159.598 69.032 154.595 68.8346 138.643V91.9309C68.6694 87.7796 62.7407 87.7827 62.577 91.9309V138.642C63.0717 163.294 96.9888 168.208 104.573 144.908C109.363 143.691 113.702 141.009 116.955 137.221C121.151 132.35 123.239 125.888 122.69 119.475C131.864 114.791 137.668 105.418 137.668 94.9642V94.9642Z" fill="#FF00FE"/>
<path d="M92.8388 107.814C94.5077 107.367 95.4983 105.651 95.0512 103.982C94.6041 102.313 92.8886 101.322 91.2194 101.769C87.7411 102.701 84.8336 104.932 83.0326 108.051C81.2323 111.169 80.754 114.803 81.686 118.281C82.1272 119.964 83.8937 120.942 85.5178 120.494C87.1867 120.047 88.1773 118.331 87.7302 116.662C87.2308 114.797 87.4874 112.851 88.452 111.18C89.4172 109.509 90.975 108.313 92.8388 107.814V107.814Z" fill="#FF00FE"/>
<path d="M100.92 59.9705C99.698 58.7488 97.7169 58.7488 96.4948 59.9705C90.317 65.8983 90.3173 76.5634 96.4948 82.4911C99.5425 85.3114 103.739 81.111 100.92 78.0661C97.1693 74.468 97.1697 67.9936 100.92 64.3956C102.142 63.1738 102.142 61.1926 100.92 59.9705V59.9705Z" fill="#FF00FE"/>
<path d="M3.12902 76.8806C4.85704 76.8806 6.25779 75.4798 6.25779 73.7518V51.8504C6.09259 47.6992 0.163879 47.7023 0.000244141 51.8504V73.7518C0.000244141 75.4798 1.401 76.8806 3.12902 76.8806Z" fill="#FF00FE"/>
<path d="M21.9021 48.7216C16.7264 48.7216 12.5157 52.9323 12.5157 58.1079V67.4942C13.0326 79.9492 30.7762 79.9398 31.2884 67.4942V58.1079C31.2884 52.9323 27.0777 48.7216 21.9021 48.7216ZM25.0308 67.4942C24.8584 71.6454 18.9441 71.6426 18.7733 67.4942V58.1079C18.7733 56.3827 20.1769 54.9791 21.9021 54.9791H21.9024C23.6276 54.9791 25.0311 56.3827 25.0311 58.1079V67.4942H25.0308Z" fill="#FF00FE"/>
<path d="M46.9328 48.7216C41.7572 48.7216 37.5465 52.9323 37.5465 58.1079V67.4942C38.0634 79.9492 55.807 79.9398 56.3191 67.4942V58.1079C56.3191 52.9323 52.1084 48.7216 46.9328 48.7216ZM50.0616 67.4942C49.8892 71.6458 43.9746 71.6426 43.8041 67.4942V58.1079C43.8041 56.3827 45.2076 54.9791 46.9328 54.9791C48.658 54.9791 50.0616 56.3827 50.0616 58.1079V67.4942Z" fill="#FF00FE"/>
<path d="M15.6439 42.4637C17.3719 42.4637 18.7727 41.063 18.7727 39.335V17.4336C18.6075 13.2823 12.6788 13.2854 12.5151 17.4336V39.335C12.5151 41.063 13.9159 42.4637 15.6439 42.4637Z" fill="#FF00FE"/>
<path d="M43.8034 33.0774V23.6911C43.2865 11.2361 25.5429 11.2455 25.0308 23.6911V33.0774C25.5479 45.5325 43.2912 45.5231 43.8034 33.0774ZM37.5458 33.0774C37.3735 37.229 31.4588 37.2262 31.2883 33.0774V23.6911C31.2883 21.9659 32.6919 20.5624 34.4171 20.5624C36.1423 20.5624 37.5458 21.9659 37.5458 23.6911V33.0774Z" fill="#FF00FE"/>
<path d="M53.1901 42.4637C54.9181 42.4637 56.3188 41.063 56.3188 39.335V17.4336C56.1536 13.2823 50.2249 13.2854 50.0613 17.4336V39.335C50.0613 41.063 51.462 42.4637 53.1901 42.4637Z" fill="#FF00FE"/>
<path d="M28.1595 83.1384C26.4315 83.1384 25.0308 84.5392 25.0308 86.2672V108.169C25.196 112.32 31.1247 112.317 31.2883 108.169V86.2672C31.2883 84.5392 29.8876 83.1384 28.1595 83.1384Z" fill="#FF00FE"/>
<path d="M18.7726 101.911V92.5248C18.2558 80.0697 0.51218 80.0791 0 92.5248V101.911C0.517186 114.366 18.2605 114.357 18.7726 101.911ZM12.5151 101.911C12.3427 106.063 6.42837 106.06 6.25754 101.911V92.5248C6.25754 90.7995 7.66111 89.396 9.38632 89.396C11.1115 89.396 12.5151 90.7995 12.5151 92.5248V101.911Z" fill="#FF00FE"/>
<path d="M46.9328 83.1384C41.7572 83.1384 37.5465 87.3491 37.5465 92.5247V101.911C38.0637 114.366 55.807 114.357 56.3191 101.911V92.5247C56.3191 87.3491 52.1084 83.1384 46.9328 83.1384ZM50.0616 101.911C49.8892 106.063 43.9746 106.06 43.8041 101.911V92.5247C43.8041 90.7995 45.2076 89.396 46.9328 89.396C48.658 89.396 50.0616 90.7995 50.0616 92.5247V101.911Z" fill="#FF00FE"/>
<path d="M40.6743 117.554C38.9463 117.554 37.5455 118.955 37.5455 120.683V142.584C37.7107 146.736 43.6394 146.732 43.8031 142.584V120.683C43.8031 118.955 42.4023 117.554 40.6743 117.554Z" fill="#FF00FE"/>
<path d="M21.9015 117.554C16.7258 117.554 12.5151 121.765 12.5151 126.941V136.327C13.0323 148.782 30.7753 148.773 31.2878 136.327V126.941C31.2878 121.765 27.0771 117.554 21.9015 117.554V117.554ZM25.0302 136.327C24.8578 140.479 18.9435 140.475 18.7727 136.327V126.941C18.9451 122.789 24.8594 122.792 25.0302 126.941V136.327Z" fill="#FF00FE"/>
<path d="M53.1901 117.554C51.462 117.554 50.0613 118.955 50.0613 120.683V142.584C50.2265 146.736 56.1552 146.732 56.3188 142.584V120.683C56.3188 118.955 54.9181 117.554 53.1901 117.554Z" fill="#FF00FE"/>
<path d="M65.7058 80.9811C67.4338 80.9811 68.8345 79.5804 68.8345 77.8524V77.8502C68.8345 76.1222 67.4338 74.7227 65.7058 74.7227C61.5561 74.8879 61.5564 80.8172 65.7058 80.9811Z" fill="#FF00FE"/>
<path d="M98.7308 33.8046C95.133 37.5547 88.658 37.5544 85.0603 33.8046C82.0078 30.9862 77.8181 35.1803 80.6352 38.2296C86.5627 44.407 97.2284 44.407 103.156 38.2296C105.974 35.1772 101.78 30.9871 98.7308 33.8046V33.8046Z" fill="#01FFFF"/>
<path d="M143.668 94.9642C143.668 85.7603 139.207 77.403 131.798 72.3088C140.85 61.2451 137.669 43.8695 125.405 36.6402C128.229 23.3751 115.834 11.0878 102.597 14.0101C98.3739 -6.31475 69.1856 -3.85804 68.577 17.0581V63.7719C68.7422 67.9232 74.6709 67.92 74.8346 63.7719V17.0581C75.3477 3.03277 95.2047 2.453 96.5886 16.357C93.7818 18.0346 91.4605 20.3884 89.8067 23.2528C88.9425 24.7493 89.4553 26.6628 90.9518 27.5267C92.4217 28.383 94.3569 27.8918 95.2257 26.3815C96.5786 24.0384 98.5926 22.2012 101.05 21.0686C101.084 21.0532 101.117 21.037 101.149 21.0207C111.435 16.3532 122.479 26.3881 118.825 37.0744C118.811 37.112 118.796 37.1495 118.783 37.188C117.754 40.1278 115.703 42.6042 113.005 44.1614C111.509 45.0256 110.996 46.9388 111.86 48.4356C112.729 49.9459 114.664 50.4368 116.134 49.5811C119.047 47.8993 121.451 45.4933 123.131 42.6255C131.85 48.5514 133.376 61.5652 126.138 69.3136C125.196 68.9463 124.234 68.6306 123.26 68.37C121.591 67.9222 119.876 68.9131 119.429 70.5823C118.981 72.2512 119.972 73.967 121.641 74.4141C122.952 74.7655 124.236 75.2454 125.457 75.8405C125.501 75.8621 125.545 75.8821 125.59 75.9015C141.889 83.832 141.041 107.845 124.254 114.635C124.206 114.652 124.157 114.67 124.108 114.69C119.856 116.422 115.061 116.71 110.628 115.516C108.958 115.068 107.243 116.059 106.796 117.728C106.348 119.397 107.339 121.113 109.008 121.56C113.395 122.741 118.108 122.807 122.515 121.751C122.396 130.434 116.164 137.715 107.597 139.146C107.569 139.15 107.542 139.154 107.514 139.158C105.016 139.568 102.432 139.439 99.9886 138.784C98.3188 138.337 96.6039 139.327 96.1565 140.997C95.7091 142.665 96.6997 144.381 98.3689 144.829C100.062 145.282 101.801 145.55 103.55 145.628C96.1449 159.598 75.032 154.595 74.8346 138.643V91.9309C74.6694 87.7796 68.7407 87.7827 68.577 91.9309V138.642C69.0717 163.294 102.989 168.208 110.573 144.908C115.363 143.691 119.702 141.009 122.955 137.221C127.151 132.35 129.239 125.888 128.69 119.475C137.864 114.791 143.668 105.418 143.668 94.9642V94.9642Z" fill="#01FFFF"/>
<path d="M98.8388 107.814C100.508 107.367 101.498 105.651 101.051 103.982C100.604 102.313 98.8886 101.322 97.2194 101.769C93.7411 102.701 90.8336 104.932 89.0326 108.051C87.2323 111.169 86.754 114.803 87.686 118.281C88.1272 119.964 89.8937 120.942 91.5178 120.494C93.1867 120.047 94.1773 118.331 93.7302 116.662C93.2308 114.797 93.4874 112.851 94.452 111.18C95.4172 109.509 96.975 108.313 98.8388 107.814V107.814Z" fill="#01FFFF"/>
<path d="M106.92 59.9705C105.698 58.7488 103.717 58.7488 102.495 59.9705C96.317 65.8983 96.3173 76.5634 102.495 82.4911C105.543 85.3114 109.739 81.111 106.92 78.0661C103.169 74.468 103.17 67.9936 106.92 64.3956C108.142 63.1738 108.142 61.1926 106.92 59.9705V59.9705Z" fill="#01FFFF"/>
<path d="M9.12902 76.8806C10.857 76.8806 12.2578 75.4798 12.2578 73.7518V51.8504C12.0926 47.6992 6.16388 47.7023 6.00024 51.8504V73.7518C6.00024 75.4798 7.401 76.8806 9.12902 76.8806Z" fill="#01FFFF"/>
<path d="M27.9021 48.7216C22.7264 48.7216 18.5157 52.9323 18.5157 58.1079V67.4942C19.0326 79.9492 36.7762 79.9398 37.2884 67.4942V58.1079C37.2884 52.9323 33.0777 48.7216 27.9021 48.7216ZM31.0308 67.4942C30.8584 71.6454 24.9441 71.6426 24.7733 67.4942V58.1079C24.7733 56.3827 26.1769 54.9791 27.9021 54.9791H27.9024C29.6276 54.9791 31.0311 56.3827 31.0311 58.1079V67.4942H31.0308Z" fill="#01FFFF"/>
<path d="M52.9328 48.7216C47.7572 48.7216 43.5465 52.9323 43.5465 58.1079V67.4942C44.0634 79.9492 61.807 79.9398 62.3191 67.4942V58.1079C62.3191 52.9323 58.1084 48.7216 52.9328 48.7216ZM56.0616 67.4942C55.8892 71.6458 49.9746 71.6426 49.8041 67.4942V58.1079C49.8041 56.3827 51.2076 54.9791 52.9328 54.9791C54.658 54.9791 56.0616 56.3827 56.0616 58.1079V67.4942Z" fill="#01FFFF"/>
<path d="M21.6439 42.4637C23.3719 42.4637 24.7727 41.063 24.7727 39.335V17.4336C24.6075 13.2823 18.6788 13.2854 18.5151 17.4336V39.335C18.5151 41.063 19.9159 42.4637 21.6439 42.4637Z" fill="#01FFFF"/>
<path d="M49.8034 33.0774V23.6911C49.2865 11.2361 31.5429 11.2455 31.0308 23.6911V33.0774C31.5479 45.5325 49.2912 45.5231 49.8034 33.0774ZM43.5458 33.0774C43.3735 37.229 37.4588 37.2262 37.2883 33.0774V23.6911C37.2883 21.9659 38.6919 20.5624 40.4171 20.5624C42.1423 20.5624 43.5458 21.9659 43.5458 23.6911V33.0774Z" fill="#01FFFF"/>
<path d="M59.1901 42.4637C60.9181 42.4637 62.3188 41.063 62.3188 39.335V17.4336C62.1536 13.2823 56.2249 13.2854 56.0613 17.4336V39.335C56.0613 41.063 57.462 42.4637 59.1901 42.4637Z" fill="#01FFFF"/>
<path d="M34.1595 83.1384C32.4315 83.1384 31.0308 84.5392 31.0308 86.2672V108.169C31.196 112.32 37.1247 112.317 37.2883 108.169V86.2672C37.2883 84.5392 35.8876 83.1384 34.1595 83.1384Z" fill="#01FFFF"/>
<path d="M24.7726 101.911V92.5248C24.2558 80.0697 6.51218 80.0791 6 92.5248V101.911C6.51719 114.366 24.2605 114.357 24.7726 101.911ZM18.5151 101.911C18.3427 106.063 12.4284 106.06 12.2575 101.911V92.5248C12.2575 90.7995 13.6611 89.396 15.3863 89.396C17.1115 89.396 18.5151 90.7995 18.5151 92.5248V101.911Z" fill="#01FFFF"/>
<path d="M52.9328 83.1384C47.7572 83.1384 43.5465 87.3491 43.5465 92.5247V101.911C44.0637 114.366 61.807 114.357 62.3191 101.911V92.5247C62.3191 87.3491 58.1084 83.1384 52.9328 83.1384ZM56.0616 101.911C55.8892 106.063 49.9746 106.06 49.8041 101.911V92.5247C49.8041 90.7995 51.2076 89.396 52.9328 89.396C54.658 89.396 56.0616 90.7995 56.0616 92.5247V101.911Z" fill="#01FFFF"/>
<path d="M46.6743 117.554C44.9463 117.554 43.5455 118.955 43.5455 120.683V142.584C43.7107 146.736 49.6394 146.732 49.8031 142.584V120.683C49.8031 118.955 48.4023 117.554 46.6743 117.554Z" fill="#01FFFF"/>
<path d="M27.9015 117.554C22.7258 117.554 18.5151 121.765 18.5151 126.941V136.327C19.0323 148.782 36.7753 148.773 37.2878 136.327V126.941C37.2878 121.765 33.0771 117.554 27.9015 117.554V117.554ZM31.0302 136.327C30.8578 140.479 24.9435 140.475 24.7727 136.327V126.941C24.9451 122.789 30.8594 122.792 31.0302 126.941V136.327Z" fill="#01FFFF"/>
<path d="M59.1901 117.554C57.462 117.554 56.0613 118.955 56.0613 120.683V142.584C56.2265 146.736 62.1552 146.732 62.3188 142.584V120.683C62.3188 118.955 60.9181 117.554 59.1901 117.554Z" fill="#01FFFF"/>
<path d="M71.7058 80.9811C73.4338 80.9811 74.8345 79.5804 74.8345 77.8524V77.8502C74.8345 76.1222 73.4338 74.7227 71.7058 74.7227C67.5561 74.8879 67.5564 80.8172 71.7058 80.9811Z" fill="#01FFFF"/>
<path d="M95.7308 33.8046C92.133 37.5547 85.658 37.5544 82.0603 33.8046C79.0078 30.9862 74.8181 35.1803 77.6352 38.2296C83.5627 44.407 94.2284 44.407 100.156 38.2296C102.974 35.1772 98.7801 30.9871 95.7308 33.8046V33.8046Z" fill="white"/>
<path d="M140.668 94.9642C140.668 85.7603 136.207 77.403 128.798 72.3088C137.85 61.2451 134.669 43.8695 122.405 36.6402C125.229 23.3751 112.834 11.0878 99.5971 14.0101C95.3739 -6.31475 66.1856 -3.85804 65.577 17.0581V63.7719C65.7422 67.9232 71.6709 67.92 71.8346 63.7719V17.0581C72.3477 3.03277 92.2047 2.453 93.5886 16.357C90.7818 18.0346 88.4605 20.3884 86.8067 23.2528C85.9425 24.7493 86.4553 26.6628 87.9518 27.5267C89.4217 28.383 91.3569 27.8918 92.2257 26.3815C93.5786 24.0384 95.5926 22.2012 98.0502 21.0686C98.0837 21.0532 98.1166 21.037 98.1491 21.0207C108.435 16.3532 119.479 26.3881 115.825 37.0744C115.811 37.112 115.796 37.1495 115.783 37.188C114.754 40.1278 112.703 42.6042 110.005 44.1614C108.509 45.0256 107.996 46.9388 108.86 48.4356C109.729 49.9459 111.664 50.4368 113.134 49.5811C116.047 47.8993 118.451 45.4933 120.131 42.6255C128.85 48.5514 130.376 61.5652 123.138 69.3136C122.196 68.9463 121.234 68.6306 120.26 68.37C118.591 67.9222 116.876 68.9131 116.429 70.5823C115.981 72.2512 116.972 73.967 118.641 74.4141C119.952 74.7655 121.236 75.2454 122.457 75.8405C122.501 75.8621 122.545 75.8821 122.59 75.9015C138.889 83.832 138.041 107.845 121.254 114.635C121.206 114.652 121.157 114.67 121.108 114.69C116.856 116.422 112.061 116.71 107.628 115.516C105.958 115.068 104.243 116.059 103.796 117.728C103.348 119.397 104.339 121.113 106.008 121.56C110.395 122.741 115.108 122.807 119.515 121.751C119.396 130.434 113.164 137.715 104.597 139.146C104.569 139.15 104.542 139.154 104.514 139.158C102.016 139.568 99.4319 139.439 96.9886 138.784C95.3188 138.337 93.6039 139.327 93.1565 140.997C92.7091 142.665 93.6997 144.381 95.3689 144.829C97.0622 145.282 98.8008 145.55 100.55 145.628C93.1449 159.598 72.032 154.595 71.8346 138.643V91.9309C71.6694 87.7796 65.7407 87.7827 65.577 91.9309V138.642C66.0717 163.294 99.9888 168.208 107.573 144.908C112.363 143.691 116.702 141.009 119.955 137.221C124.151 132.35 126.239 125.888 125.69 119.475C134.864 114.791 140.668 105.418 140.668 94.9642V94.9642Z" fill="white"/>
<path d="M95.8388 107.814C97.5077 107.367 98.4983 105.651 98.0512 103.982C97.6041 102.313 95.8886 101.322 94.2194 101.769C90.7411 102.701 87.8336 104.932 86.0326 108.051C84.2323 111.169 83.754 114.803 84.686 118.281C85.1272 119.964 86.8937 120.942 88.5178 120.494C90.1867 120.047 91.1773 118.331 90.7302 116.662C90.2308 114.797 90.4874 112.851 91.452 111.18C92.4172 109.509 93.975 108.313 95.8388 107.814V107.814Z" fill="white"/>
<path d="M103.92 59.9705C102.698 58.7488 100.717 58.7488 99.4948 59.9705C93.317 65.8983 93.3173 76.5634 99.4948 82.4911C102.543 85.3114 106.739 81.111 103.92 78.0661C100.169 74.468 100.17 67.9936 103.92 64.3956C105.142 63.1738 105.142 61.1926 103.92 59.9705V59.9705Z" fill="white"/>
<path d="M6.12902 76.8806C7.85704 76.8806 9.25779 75.4798 9.25779 73.7518V51.8504C9.09259 47.6992 3.16388 47.7023 3.00024 51.8504V73.7518C3.00024 75.4798 4.401 76.8806 6.12902 76.8806Z" fill="white"/>
<path d="M24.9021 48.7216C19.7264 48.7216 15.5157 52.9323 15.5157 58.1079V67.4942C16.0326 79.9492 33.7762 79.9398 34.2884 67.4942V58.1079C34.2884 52.9323 30.0777 48.7216 24.9021 48.7216ZM28.0308 67.4942C27.8584 71.6454 21.9441 71.6426 21.7733 67.4942V58.1079C21.7733 56.3827 23.1769 54.9791 24.9021 54.9791H24.9024C26.6276 54.9791 28.0311 56.3827 28.0311 58.1079V67.4942H28.0308Z" fill="white"/>
<path d="M49.9328 48.7216C44.7572 48.7216 40.5465 52.9323 40.5465 58.1079V67.4942C41.0634 79.9492 58.807 79.9398 59.3191 67.4942V58.1079C59.3191 52.9323 55.1084 48.7216 49.9328 48.7216ZM53.0616 67.4942C52.8892 71.6458 46.9746 71.6426 46.8041 67.4942V58.1079C46.8041 56.3827 48.2076 54.9791 49.9328 54.9791C51.658 54.9791 53.0616 56.3827 53.0616 58.1079V67.4942Z" fill="white"/>
<path d="M18.6439 42.4637C20.3719 42.4637 21.7727 41.063 21.7727 39.335V17.4336C21.6075 13.2823 15.6788 13.2854 15.5151 17.4336V39.335C15.5151 41.063 16.9159 42.4637 18.6439 42.4637Z" fill="white"/>
<path d="M46.8034 33.0774V23.6911C46.2865 11.2361 28.5429 11.2455 28.0308 23.6911V33.0774C28.5479 45.5325 46.2912 45.5231 46.8034 33.0774ZM40.5458 33.0774C40.3735 37.229 34.4588 37.2262 34.2883 33.0774V23.6911C34.2883 21.9659 35.6919 20.5624 37.4171 20.5624C39.1423 20.5624 40.5458 21.9659 40.5458 23.6911V33.0774Z" fill="white"/>
<path d="M56.1901 42.4637C57.9181 42.4637 59.3188 41.063 59.3188 39.335V17.4336C59.1536 13.2823 53.2249 13.2854 53.0613 17.4336V39.335C53.0613 41.063 54.462 42.4637 56.1901 42.4637Z" fill="white"/>
<path d="M31.1595 83.1384C29.4315 83.1384 28.0308 84.5392 28.0308 86.2672V108.169C28.196 112.32 34.1247 112.317 34.2883 108.169V86.2672C34.2883 84.5392 32.8876 83.1384 31.1595 83.1384Z" fill="white"/>
<path d="M21.7726 101.911V92.5248C21.2558 80.0697 3.51218 80.0791 3 92.5248V101.911C3.51719 114.366 21.2605 114.357 21.7726 101.911ZM15.5151 101.911C15.3427 106.063 9.42837 106.06 9.25754 101.911V92.5248C9.25754 90.7995 10.6611 89.396 12.3863 89.396C14.1115 89.396 15.5151 90.7995 15.5151 92.5248V101.911Z" fill="white"/>
<path d="M49.9328 83.1384C44.7572 83.1384 40.5465 87.3491 40.5465 92.5247V101.911C41.0637 114.366 58.807 114.357 59.3191 101.911V92.5247C59.3191 87.3491 55.1084 83.1384 49.9328 83.1384ZM53.0616 101.911C52.8892 106.063 46.9746 106.06 46.8041 101.911V92.5247C46.8041 90.7995 48.2076 89.396 49.9328 89.396C51.658 89.396 53.0616 90.7995 53.0616 92.5247V101.911Z" fill="white"/>
<path d="M43.6743 117.554C41.9463 117.554 40.5455 118.955 40.5455 120.683V142.584C40.7107 146.736 46.6394 146.732 46.8031 142.584V120.683C46.8031 118.955 45.4023 117.554 43.6743 117.554Z" fill="white"/>
<path d="M24.9015 117.554C19.7258 117.554 15.5151 121.765 15.5151 126.941V136.327C16.0323 148.782 33.7753 148.773 34.2878 136.327V126.941C34.2878 121.765 30.0771 117.554 24.9015 117.554V117.554ZM28.0302 136.327C27.8578 140.479 21.9435 140.475 21.7727 136.327V126.941C21.9451 122.789 27.8594 122.792 28.0302 126.941V136.327Z" fill="white"/>
<path d="M56.1901 117.554C54.462 117.554 53.0613 118.955 53.0613 120.683V142.584C53.2265 146.736 59.1552 146.732 59.3188 142.584V120.683C59.3188 118.955 57.9181 117.554 56.1901 117.554Z" fill="white"/>
<path d="M68.7058 80.9811C70.4338 80.9811 71.8345 79.5804 71.8345 77.8524V77.8502C71.8345 76.1222 70.4338 74.7227 68.7058 74.7227C64.5561 74.8879 64.5564 80.8172 68.7058 80.9811Z" fill="white"/>
</svg>
