<svg id="Capa_1" enable-background="new 0 0 512 512" height="512" viewBox="0 0 512 512" width="512" xmlns="http://www.w3.org/2000/svg"><path d="m374.236 266.743 12.567-12.567c.004-.004.008-.008.012-.012s.008-.008.012-.012l44.332-44.332c.002-.003.005-.005.008-.007s.005-.005.007-.008l44.34-44.34c.001-.001.002-.002.003-.003s.002-.002.003-.003l24.355-24.355c7.819-7.818 12.125-18.214 12.125-29.271s-4.307-21.453-12.125-29.27l-70.436-70.437c-7.818-7.818-18.214-12.125-29.271-12.125-11.058 0-21.453 4.306-29.271 12.125l-125.64 125.638-85.279-85.28c-14.276-14.276-32.168-24.438-51.743-29.387l-89.558-22.639c-5.12-1.295-10.548.2-14.283 3.937-3.736 3.735-5.231 9.16-3.936 14.282l22.64 89.558c4.948 19.574 15.11 37.467 29.386 51.743l85.28 85.279-125.64 125.639c-7.818 7.819-12.124 18.214-12.124 29.271 0 11.058 4.306 21.452 12.125 29.27l70.437 70.437c7.819 7.82 18.214 12.126 29.272 12.126 11.057 0 21.452-4.306 29.27-12.125l68.677-68.676c.011-.01.021-.021.032-.031s.021-.021.031-.032l56.899-56.899 115.5 115.501c14.818 14.818 34.282 22.228 53.747 22.228s38.929-7.409 53.747-22.228c29.637-29.636 29.637-77.858 0-107.494zm-322.054-165.86-16.476-65.176 65.176 16.477c14.331 3.622 27.43 11.062 37.882 21.514l11.826 11.826-65.068 65.068-11.826-11.826c-10.452-10.453-17.891-23.552-21.514-37.883zm54.553 70.921 65.068-65.068 52.241 52.241-65.068 65.068zm5.099 310.196c-3.044 0-5.905-1.186-8.058-3.338l-70.438-70.437c-2.152-2.152-3.337-5.014-3.337-8.058s1.185-5.906 3.337-8.059l358.771-358.77c2.152-2.152 5.015-3.338 8.059-3.338s5.905 1.186 8.058 3.338l70.437 70.438c2.152 2.151 3.338 5.013 3.338 8.057s-1.186 5.906-3.338 8.059l-13.751 13.751-45.757-45.758c-5.856-5.858-15.354-5.858-21.213 0-5.858 5.857-5.858 15.355 0 21.213l45.757 45.758-23.138 23.138-23.582-23.581c-5.857-5.859-15.355-5.857-21.213 0-5.858 5.858-5.858 15.355 0 21.213l23.582 23.581-23.138 23.138-45.757-45.758c-5.858-5.858-15.355-5.858-21.213 0-5.858 5.857-5.858 15.355 0 21.213l45.757 45.757-23.138 23.138-23.582-23.581c-5.857-5.857-15.355-5.857-21.213 0s-5.858 15.355 0 21.213l23.581 23.581-22.737 22.737-45.757-45.757c-5.858-5.858-15.355-5.858-21.213 0-5.858 5.857-5.858 15.355 0 21.213l45.757 45.757-23.138 23.138-23.581-23.581c-5.857-5.857-15.355-5.857-21.213 0s-5.858 15.355 0 21.213l23.581 23.581-23.138 23.138-45.756-45.756c-5.857-5.857-15.355-5.857-21.213 0s-5.858 15.355 0 21.213l45.756 45.756-23.138 23.138-23.581-23.581c-5.857-5.857-15.355-5.857-21.213 0s-5.858 15.355 0 21.213l23.581 23.581-13.751 13.751c-2.152 2.153-5.014 3.338-8.057 3.338zm186.62-139.474c.021-.02.041-.04.062-.061s.041-.041.061-.062l43.872-43.872c.006-.006.012-.011.017-.017s.011-.011.017-.017l10.541-10.541 63.562 63.562-65.068 65.068-63.562-63.562zm170.07 125.998c-17.939 17.939-47.129 17.939-65.068 0l-30.725-30.726 65.068-65.068 30.726 30.725c17.939 17.941 17.939 47.13-.001 65.069z"/></svg>