<svg width="15" height="20" viewBox="0 0 15 20" fill="none" xmlns="http://www.w3.org/2000/svg">
<path d="M2.84 5.6H0.28V0.255999H8.12V2.816H2.84V5.6ZM11.48 0.351999H14.04V13.088C14.04 14.0267 13.8693 14.912 13.528 15.744C13.1867 16.576 12.6853 17.312 12.024 17.952C11.3627 18.6133 10.616 19.1147 9.784 19.456C8.952 19.7973 8.07733 19.968 7.16 19.968C6.22133 19.968 5.336 19.7973 4.504 19.456C3.672 19.1147 2.936 18.6133 2.296 17.952C1.63467 17.312 1.13333 16.576 0.792 15.744C0.450667 14.912 0.28 14.0267 0.28 13.088V7.296H2.84H8.12V9.856H2.84V13.088C2.84 13.6853 2.94667 14.2507 3.16 14.784C3.39467 15.296 3.704 15.7547 4.088 16.16C4.49333 16.544 4.952 16.8533 5.464 17.088C5.99733 17.3013 6.56267 17.408 7.16 17.408C7.75733 17.408 8.312 17.3013 8.824 17.088C9.35733 16.8533 9.816 16.544 10.2 16.16C10.6053 15.7547 10.9147 15.296 11.128 14.784C11.3627 14.2507 11.48 13.6853 11.48 13.088V0.351999Z" fill="white"/>
</svg>
