<svg width="138" height="160" viewBox="0 0 138 160" fill="none" xmlns="http://www.w3.org/2000/svg">
<path d="M92.7308 33.8046C89.1331 37.5547 82.6581 37.5544 79.0603 33.8046C76.0079 30.9862 71.8181 35.1803 74.6353 38.2296C80.5627 44.407 91.2284 44.407 97.1559 38.2296C99.9743 35.1772 95.7801 30.9871 92.7308 33.8046V33.8046Z" fill="white"/>
<path d="M137.667 94.9642C137.667 85.7603 133.207 77.403 125.798 72.3088C134.85 61.2451 131.669 43.8695 119.405 36.6402C122.229 23.3751 109.834 11.0878 96.5971 14.0101C92.3738 -6.31475 63.1855 -3.85804 62.577 17.0581V63.7719C62.7422 67.9232 68.6709 67.92 68.8345 63.7719V17.0581C69.3476 3.03277 89.2047 2.453 90.5886 16.357C87.7817 18.0346 85.4605 20.3884 83.8066 23.2528C82.9425 24.7493 83.4553 26.6628 84.9518 27.5267C86.4217 28.383 88.3568 27.8918 89.2257 26.3815C90.5785 24.0384 92.5925 22.2012 95.0502 21.0686C95.0837 21.0532 95.1165 21.037 95.1491 21.0207C105.435 16.3532 116.479 26.3881 112.825 37.0744C112.811 37.112 112.796 37.1495 112.783 37.188C111.754 40.1278 109.703 42.6042 107.005 44.1614C105.509 45.0256 104.996 46.9388 105.86 48.4356C106.729 49.9459 108.664 50.4368 110.134 49.5811C113.047 47.8993 115.451 45.4933 117.131 42.6255C125.85 48.5514 127.376 61.5652 120.138 69.3136C119.196 68.9463 118.234 68.6306 117.26 68.37C115.591 67.9222 113.876 68.9131 113.429 70.5823C112.981 72.2512 113.972 73.967 115.641 74.4141C116.952 74.7655 118.236 75.2454 119.457 75.8405C119.501 75.8621 119.545 75.8821 119.59 75.9015C135.889 83.832 135.041 107.845 118.254 114.635C118.206 114.652 118.157 114.67 118.108 114.69C113.856 116.422 109.061 116.71 104.628 115.516C102.958 115.068 101.243 116.059 100.796 117.728C100.348 119.397 101.339 121.113 103.008 121.56C107.395 122.741 112.108 122.807 116.515 121.751C116.396 130.434 110.164 137.715 101.597 139.146C101.569 139.15 101.541 139.154 101.514 139.158C99.0159 139.568 96.4319 139.439 93.9886 138.784C92.3188 138.337 90.6039 139.327 90.1565 140.997C89.7091 142.665 90.6996 144.381 92.3688 144.829C94.0621 145.282 95.8008 145.55 97.5504 145.628C90.1449 159.598 69.0319 154.595 68.8345 138.643V91.9309C68.6693 87.7796 62.7406 87.7827 62.577 91.9309V138.642C63.0716 163.294 96.9888 168.208 104.573 144.908C109.363 143.691 113.702 141.009 116.955 137.221C121.151 132.35 123.239 125.888 122.69 119.475C131.864 114.791 137.667 105.418 137.667 94.9642V94.9642Z" fill="white"/>
<path d="M92.8388 107.814C94.5077 107.367 95.4982 105.651 95.0511 103.982C94.604 102.313 92.8885 101.322 91.2193 101.769C87.7411 102.701 84.8335 104.932 83.0326 108.051C81.2323 111.169 80.7539 114.803 81.686 118.281C82.1271 119.964 83.8936 120.942 85.5178 120.494C87.1867 120.047 88.1772 118.331 87.7301 116.662C87.2308 114.797 87.4873 112.851 88.4519 111.18C89.4172 109.509 90.975 108.313 92.8388 107.814V107.814Z" fill="white"/>
<path d="M100.92 59.9705C99.698 58.7488 97.7168 58.7488 96.4947 59.9705C90.317 65.8983 90.3173 76.5634 96.4947 82.4911C99.5425 85.3114 103.739 81.111 100.92 78.0661C97.1693 74.468 97.1696 67.9936 100.92 64.3956C102.142 63.1738 102.142 61.1926 100.92 59.9705V59.9705Z" fill="white"/>
<path d="M3.12906 76.8806C4.85708 76.8806 6.25783 75.4798 6.25783 73.7518V51.8504C6.09263 47.6992 0.163925 47.7023 0.000289917 51.8504V73.7518C0.000289917 75.4798 1.40104 76.8806 3.12906 76.8806Z" fill="white"/>
<path d="M21.902 48.7216C16.7264 48.7216 12.5157 52.9323 12.5157 58.1079V67.4942C13.0326 79.9492 30.7762 79.9398 31.2883 67.4942V58.1079C31.2883 52.9323 27.0776 48.7216 21.902 48.7216ZM25.0308 67.4942C24.8584 71.6454 18.9441 71.6426 18.7733 67.4942V58.1079C18.7733 56.3827 20.1768 54.9791 21.902 54.9791H21.9023C23.6275 54.9791 25.0311 56.3827 25.0311 58.1079V67.4942H25.0308Z" fill="white"/>
<path d="M46.9328 48.7216C41.7572 48.7216 37.5465 52.9323 37.5465 58.1079V67.4942C38.0634 79.9492 55.807 79.9398 56.3191 67.4942V58.1079C56.3191 52.9323 52.1084 48.7216 46.9328 48.7216ZM50.0616 67.4942C49.8892 71.6458 43.9746 71.6426 43.8041 67.4942V58.1079C43.8041 56.3827 45.2076 54.9791 46.9328 54.9791C48.658 54.9791 50.0616 56.3827 50.0616 58.1079V67.4942Z" fill="white"/>
<path d="M15.6438 42.4637C17.3719 42.4637 18.7726 41.063 18.7726 39.335V17.4336C18.6074 13.2823 12.6787 13.2854 12.5151 17.4336V39.335C12.5151 41.063 13.9158 42.4637 15.6438 42.4637Z" fill="white"/>
<path d="M43.8034 33.0774V23.6911C43.2865 11.2361 25.543 11.2455 25.0308 23.6911V33.0774C25.548 45.5325 43.2912 45.5231 43.8034 33.0774ZM37.5459 33.0774C37.3735 37.229 31.4589 37.2262 31.2883 33.0774V23.6911C31.2883 21.9659 32.6919 20.5624 34.4171 20.5624C36.1423 20.5624 37.5459 21.9659 37.5459 23.6911V33.0774Z" fill="white"/>
<path d="M53.1901 42.4637C54.9181 42.4637 56.3188 41.063 56.3188 39.335V17.4336C56.1536 13.2823 50.2249 13.2854 50.0613 17.4336V39.335C50.0613 41.063 51.462 42.4637 53.1901 42.4637Z" fill="white"/>
<path d="M28.1596 83.1384C26.4315 83.1384 25.0308 84.5392 25.0308 86.2672V108.169C25.196 112.32 31.1247 112.317 31.2883 108.169V86.2672C31.2883 84.5392 29.8876 83.1384 28.1596 83.1384Z" fill="white"/>
<path d="M18.7726 101.911V92.5248C18.2558 80.0697 0.51218 80.0791 0 92.5248V101.911C0.517186 114.366 18.2605 114.357 18.7726 101.911ZM12.5151 101.911C12.3427 106.063 6.42837 106.06 6.25754 101.911V92.5248C6.25754 90.7995 7.66111 89.396 9.38632 89.396C11.1115 89.396 12.5151 90.7995 12.5151 92.5248V101.911Z" fill="white"/>
<path d="M46.9328 83.1384C41.7572 83.1384 37.5465 87.3491 37.5465 92.5247V101.911C38.0637 114.366 55.807 114.357 56.3191 101.911V92.5247C56.3191 87.3491 52.1084 83.1384 46.9328 83.1384ZM50.0616 101.911C49.8892 106.063 43.9746 106.06 43.8041 101.911V92.5247C43.8041 90.7995 45.2076 89.396 46.9328 89.396C48.658 89.396 50.0616 90.7995 50.0616 92.5247V101.911Z" fill="white"/>
<path d="M40.6743 117.554C38.9463 117.554 37.5456 118.955 37.5456 120.683V142.584C37.7108 146.736 43.6395 146.732 43.8031 142.584V120.683C43.8031 118.955 42.4024 117.554 40.6743 117.554Z" fill="white"/>
<path d="M21.9014 117.554C16.7258 117.554 12.5151 121.765 12.5151 126.941V136.327C13.0323 148.782 30.7752 148.773 31.2877 136.327V126.941C31.2877 121.765 27.077 117.554 21.9014 117.554V117.554ZM25.0302 136.327C24.8578 140.479 18.9434 140.475 18.7726 136.327V126.941C18.945 122.789 24.8593 122.792 25.0302 126.941V136.327Z" fill="white"/>
<path d="M53.1901 117.554C51.462 117.554 50.0613 118.955 50.0613 120.683V142.584C50.2265 146.736 56.1552 146.732 56.3188 142.584V120.683C56.3188 118.955 54.9181 117.554 53.1901 117.554Z" fill="white"/>
<path d="M65.7058 80.9811C67.4338 80.9811 68.8345 79.5804 68.8345 77.8524V77.8502C68.8345 76.1222 67.4338 74.7227 65.7058 74.7227C61.5561 74.8879 61.5564 80.8172 65.7058 80.9811Z" fill="white"/>
</svg>
