<svg width="155" height="155" viewBox="0 0 155 155" fill="none" xmlns="http://www.w3.org/2000/svg">
<path d="M133.969 24.0745H151.973C153.645 24.0745 155 22.7193 155 21.0471V3.02734C155 1.35521 153.645 0 151.973 0H133.969C132.297 0 130.942 1.35521 130.942 3.02734V9.0099H89.529V3.02734C89.529 1.35521 88.1738 0 86.5016 0H68.4984C66.8262 0 65.471 1.35521 65.471 3.02734V9.0099H24.0579V3.02734C24.0579 1.35521 22.7027 0 21.0306 0H3.02734C1.35521 0 0 1.35521 0 3.02734V21.0471C0 22.7193 1.35521 24.0745 3.02734 24.0745H21.0306C22.7027 24.0745 24.0579 22.7193 24.0579 21.0471V15.0646H49.2416C40.3736 19.0853 32.3784 24.991 25.8637 32.4588C15.6488 44.1685 9.74308 58.9859 9.06075 74.4727H3.02734C1.35521 74.4727 0 75.8279 0 77.5V95.5198C0 97.1919 1.35521 98.5471 3.02734 98.5471H21.0306C22.7027 98.5471 24.0579 97.1919 24.0579 95.5198V77.5C24.0579 75.8279 22.7027 74.4727 21.0306 74.4727H15.1225C16.5179 45.9435 37.5048 21.6502 65.471 16.1892V21.0483C65.471 22.7205 66.8262 24.0757 68.4984 24.0757H86.5016C88.1738 24.0757 89.529 22.7205 89.529 21.0483V16.1892C117.495 21.6502 138.482 45.9435 139.877 74.4727H133.969C132.297 74.4727 130.942 75.8279 130.942 77.5V95.5198C130.942 97.1919 132.297 98.5471 133.969 98.5471H151.973C153.645 98.5471 155 97.1919 155 95.5198V77.5C155 75.8279 153.645 74.4727 151.973 74.4727H145.939C145.257 58.9859 139.351 44.1685 129.136 32.4588C122.622 24.991 114.626 19.0853 105.758 15.0646H130.942V21.0483C130.942 22.7193 132.297 24.0745 133.969 24.0745ZM18.0032 18.0198H6.05469V6.05469H18.0032V18.0198ZM18.0032 92.4924H6.05469V80.5273H18.0032V92.4924ZM148.945 92.4924H136.997V80.5273H148.945V92.4924ZM83.4743 18.0198H71.5257V6.05469H83.4743V18.0198ZM136.997 6.05469H148.945V18.0198H136.997V6.05469Z" fill="white"/>
<path d="M80.1513 33.354C79.6191 32.3878 78.6033 31.7871 77.5 31.7871C76.3967 31.7871 75.3808 32.3878 74.8487 33.354L62.2746 56.1821C61.4681 57.6472 62.0014 59.4885 63.4666 60.2938C64.9294 61.1003 66.7718 60.5682 67.5783 59.103L74.4726 46.5856V68.9111C70.2698 70.2072 67.207 74.1273 67.207 78.75C67.207 84.425 71.8249 89.0429 77.5 89.0429C83.1751 89.0429 87.793 84.425 87.793 78.75C87.793 74.1273 84.7301 70.2072 80.5273 68.9111V46.5856L101.297 84.295C94.4732 91.1964 89.8222 100.049 88.0153 109.59H66.9847C65.1766 100.049 60.5256 91.1964 53.7034 84.295L57.173 77.9955C57.9795 76.5315 57.4462 74.6902 55.9822 73.8837C54.5182 73.0772 52.6758 73.6094 51.8693 75.0746L47.2809 83.4069C46.6069 84.6296 46.8576 86.1563 47.8876 87.1C54.407 93.0707 58.9339 100.98 60.807 109.59H57.9878C52.9797 109.59 48.9058 113.665 48.9058 118.672C48.9058 122.205 50.9339 125.271 53.8867 126.771V151.973C53.8867 153.645 55.2419 155 56.914 155C58.5862 155 59.9414 153.645 59.9414 151.973V127.754H95.0586V151.973C95.0586 153.645 96.4138 155 98.0859 155C99.7581 155 101.113 153.645 101.113 151.973V126.771C104.066 125.271 106.094 122.204 106.094 118.672C106.094 113.664 102.02 109.59 97.0122 109.59H94.1929C96.0661 100.978 100.593 93.0707 107.112 87.0988C108.142 86.1551 108.393 84.6296 107.719 83.4057L80.1513 33.354ZM77.5 82.9882C75.1633 82.9882 73.2617 81.0867 73.2617 78.75C73.2617 76.412 75.1633 74.5117 77.5 74.5117C79.8367 74.5117 81.7383 76.412 81.7383 78.75C81.7383 81.0867 79.8367 82.9882 77.5 82.9882ZM100.04 118.672C100.04 120.342 98.6819 121.699 97.0122 121.699H57.9878C56.318 121.699 54.9605 120.342 54.9605 118.672C54.9605 117.002 56.318 115.645 57.9878 115.645H97.0122C98.6819 115.645 100.04 117.002 100.04 118.672Z" fill="white"/>
<path d="M59.5263 70.271C60.3233 70.271 61.1038 69.9493 61.6667 69.3864C62.2296 68.82 62.5536 68.0431 62.5536 67.2437C62.5536 66.4466 62.2296 65.6697 61.6667 65.1032C61.1038 64.5403 60.3233 64.2163 59.5263 64.2163C58.7269 64.2163 57.9464 64.5403 57.3835 65.1032C56.8206 65.6697 56.499 66.4466 56.499 67.2437C56.499 68.0431 56.8206 68.82 57.3835 69.3864C57.9464 69.9493 58.7269 70.271 59.5263 70.271Z" fill="white"/>
</svg>
