<svg width="157" height="153" viewBox="0 0 157 153" fill="none" xmlns="http://www.w3.org/2000/svg">
<path d="M49.9002 119.579C40.8807 119.579 33.5693 126.891 33.5693 135.91C33.5693 144.93 40.881 152.241 49.9002 152.241C58.9197 152.241 66.231 144.929 66.231 135.91C66.2314 126.891 58.9197 119.579 49.9002 119.579ZM49.9002 144.983C44.8894 144.983 40.8275 140.921 40.8275 135.911C40.8275 130.9 44.8894 126.838 49.9002 126.838C54.9109 126.838 58.9728 130.9 58.9728 135.911C58.9732 140.921 54.9109 144.983 49.9002 144.983Z" fill="#FFF8F8"/>
<path d="M118.854 119.579C109.834 119.579 102.523 126.891 102.523 135.91C102.523 144.93 109.834 152.241 118.854 152.241C127.873 152.241 135.184 144.929 135.184 135.91C135.184 126.891 127.873 119.579 118.854 119.579ZM118.854 144.983C113.843 144.983 109.781 140.921 109.781 135.911C109.781 130.9 113.843 126.838 118.854 126.838C123.864 126.838 127.926 130.9 127.926 135.911C127.927 140.921 123.864 144.983 118.854 144.983Z" fill="#FFF8F8"/>
<path d="M155.689 24.3154C154.933 23.4898 153.899 22.973 152.786 22.8636L34.6581 21.2305L31.392 11.2503C29.091 4.57869 22.8434 0.0746733 15.7866 0H3.62912C1.62475 0 0 1.62475 0 3.62912C0 5.63349 1.62475 7.25825 3.62912 7.25825H15.7866C19.7325 7.34542 23.2071 9.87911 24.4967 13.6093L47.5415 83.1069L45.7272 87.2802C43.7033 92.499 44.3111 98.3729 47.3602 103.067C50.3802 107.677 55.4607 110.522 60.9695 110.688H131.556C133.56 110.688 135.185 109.063 135.185 107.059C135.185 105.055 133.56 103.43 131.556 103.43H60.9692C57.8583 103.352 54.9946 101.715 53.348 99.0748C51.7198 96.4665 51.3853 93.2531 52.4408 90.3648L53.8926 87.0986L130.285 79.1145C138.677 78.1903 145.579 72.0872 147.524 63.8721L156.234 27.3995C156.626 26.3493 156.418 25.168 155.689 24.3154ZM140.447 62.2393C139.269 67.5276 134.779 71.4283 129.378 71.8566L53.8926 79.6591L37.0171 28.4887L148.249 30.1218L140.447 62.2393Z" fill="#FFF8F8"/>
</svg>
