<?xml version="1.0"?>
<svg xmlns="http://www.w3.org/2000/svg" viewBox="0 0 88 88" width="512" height="512"><g id="G._Design" data-name="G. Design"><path d="M86.707,64.293,61.4141,39,82.4287,17.9854A8.7781,8.7781,0,1,0,70.0146,5.5713L49,26.5859,23.707,1.293a.9994.9994,0,0,0-1.414,0l-21,21a.9994.9994,0,0,0,0,1.414L26.5859,49,8.293,67.293a.9809.9809,0,0,0-.2289.3778c-.0041.0115-.015.0192-.0187.0309l-5,16a1,1,0,0,0,1.2529,1.2529l16-5c.0117-.0037.0194-.0146.0309-.0187a.9809.9809,0,0,0,.3778-.2289L39,61.4141,64.293,86.707a.9995.9995,0,0,0,1.414,0l21-21A.9994.9994,0,0,0,86.707,64.293ZM23.5,74.0859,19.4141,70,69.5,19.9141,73.5859,24Zm-3.5,3.5L10.4141,68,12.5,65.9141,22.0859,75.5ZM64,14.4141,68.0859,18.5,18,68.5859,13.9141,64.5Zm3.5-3.5L77.0859,20.5,75,22.5859,65.4141,13Zm3.9287-3.9287a6.7783,6.7783,0,1,1,9.5859,9.5859L78.5,19.0859,68.9141,9.5ZM23,3.4141,47.5859,28,45,30.5859,20.4141,6ZM23.9141,43.5l3.2929-3.293a1,1,0,0,0-1.414-1.414L22.5,42.0859,18.9141,38.5l3.2929-3.293a1,1,0,0,0-1.414-1.414L17.5,37.0859,13.9141,33.5l3.2929-3.293a1,1,0,0,0-1.414-1.414L12.5,32.0859,8.9141,28.5l3.2929-3.293a1,1,0,0,0-1.414-1.414L7.5,27.0859,3.4141,23,19,7.4141,43.5859,32,28,47.5859ZM9.4614,69.8755l8.6631,8.6631L5.5239,82.4761ZM65,84.5859,60.9141,80.5l3.2929-3.293a1,1,0,1,0-1.414-1.414L59.5,79.0859,55.9141,75.5l3.2929-3.293a1,1,0,1,0-1.414-1.414L54.5,74.0859,50.9141,70.5l3.2929-3.293a1,1,0,1,0-1.414-1.414L49.5,69.0859,45.9141,65.5l3.2929-3.293a1,1,0,0,0-1.414-1.414L44.5,64.0859,40.4141,60,56,44.4141,80.5859,69Zm17-17L57.4141,43,60,40.4141,84.5859,65Z"/></g></svg>
