<svg width="51" height="51" viewBox="0 0 51 51" fill="none" xmlns="http://www.w3.org/2000/svg">
<g clip-path="url(#clip0_67_224)">
<path d="M51 12.0861C51.0096 11.4631 50.7662 10.8624 50.3305 10.4172C49.8965 9.97353 49.2959 9.72367 48.6729 9.72367H38.429C38.1391 9.72367 37.878 9.89825 37.7675 10.1657C37.6602 10.4332 37.7227 10.7407 37.9261 10.9457L39.9009 12.919C40.2132 13.2297 40.3909 13.6509 40.3909 14.0914C40.3909 14.5302 40.218 14.9531 39.9025 15.2638L29.8764 25.2854C29.0179 26.1455 27.6261 26.1455 26.7709 25.2854L20.302 18.8163C19.9192 18.4335 19.4019 18.2189 18.8605 18.2189C18.3192 18.2189 17.8003 18.4335 17.4175 18.8163L0.595798 35.6289C-0.198599 36.4265 -0.198599 37.7191 0.595798 38.5167L2.76438 40.6821C3.14716 41.0649 3.66448 41.2779 4.20582 41.2779C4.74717 41.2779 5.26449 41.0649 5.64727 40.6853L17.3022 29.0317C18.1606 28.1748 19.5524 28.1748 20.4093 29.0317L26.7645 35.3886C27.1777 35.7987 27.7334 36.0277 28.3196 36.0277C28.9058 36.0277 29.4648 35.7939 29.878 35.3886L44.9587 20.3058C45.2678 19.9951 45.6907 19.8205 46.1279 19.8205C46.5668 19.8205 46.9912 19.9951 47.2987 20.3074L49.6258 22.641C49.8292 22.8445 50.1319 22.9069 50.401 22.7996C50.6669 22.6923 50.8382 22.4344 50.8478 22.1477L51 12.0861Z" fill="white"/>
</g>
<defs>
<clipPath id="clip0_67_224">
<rect width="51" height="51" fill="white"/>
</clipPath>
</defs>
</svg>
