<svg width="163" height="153" viewBox="0 0 163 153" fill="none" xmlns="http://www.w3.org/2000/svg">
<path d="M49.9002 119.579C40.8807 119.579 33.5693 126.891 33.5693 135.91C33.5693 144.93 40.8811 152.241 49.9002 152.241C58.9197 152.241 66.2311 144.929 66.2311 135.91C66.2314 126.891 58.9197 119.579 49.9002 119.579ZM49.9002 144.983C44.8895 144.983 40.8276 140.921 40.8276 135.911C40.8276 130.9 44.8895 126.838 49.9002 126.838C54.911 126.838 58.9729 130.9 58.9729 135.911C58.9732 140.921 54.911 144.983 49.9002 144.983Z" fill="#FF00FE"/>
<path d="M118.854 119.579C109.834 119.579 102.523 126.891 102.523 135.91C102.523 144.93 109.834 152.241 118.854 152.241C127.873 152.241 135.184 144.929 135.184 135.91C135.184 126.891 127.873 119.579 118.854 119.579ZM118.854 144.983C113.843 144.983 109.781 140.921 109.781 135.911C109.781 130.9 113.843 126.838 118.854 126.838C123.864 126.838 127.926 130.9 127.926 135.911C127.927 140.921 123.864 144.983 118.854 144.983Z" fill="#FF00FE"/>
<path d="M155.689 24.3154C154.933 23.4898 153.899 22.973 152.786 22.8636L34.6581 21.2305L31.392 11.2503C29.091 4.57869 22.8434 0.0746733 15.7866 0H3.62912C1.62475 0 0 1.62475 0 3.62912C0 5.63349 1.62475 7.25825 3.62912 7.25825H15.7866C19.7325 7.34542 23.2071 9.87911 24.4967 13.6093L47.5415 83.1069L45.7272 87.2802C43.7033 92.499 44.3111 98.3729 47.3602 103.067C50.3802 107.677 55.4607 110.522 60.9695 110.688H131.556C133.56 110.688 135.185 109.063 135.185 107.059C135.185 105.055 133.56 103.43 131.556 103.43H60.9692C57.8583 103.352 54.9946 101.715 53.348 99.0748C51.7198 96.4665 51.3853 93.2531 52.4408 90.3648L53.8926 87.0986L130.285 79.1145C138.677 78.1903 145.579 72.0872 147.524 63.8721L156.234 27.3995C156.626 26.3493 156.418 25.168 155.689 24.3154ZM140.447 62.2393C139.269 67.5276 134.779 71.4283 129.378 71.8566L53.8926 79.6591L37.0171 28.4887L148.249 30.1218L140.447 62.2393Z" fill="#FF00FE"/>
<path d="M55.9002 119.579C46.8807 119.579 39.5693 126.891 39.5693 135.91C39.5693 144.93 46.8811 152.241 55.9002 152.241C64.9197 152.241 72.2311 144.929 72.2311 135.91C72.2314 126.891 64.9197 119.579 55.9002 119.579ZM55.9002 144.983C50.8895 144.983 46.8276 140.921 46.8276 135.911C46.8276 130.9 50.8895 126.838 55.9002 126.838C60.911 126.838 64.9729 130.9 64.9729 135.911C64.9732 140.921 60.911 144.983 55.9002 144.983Z" fill="#01FFFF"/>
<path d="M124.854 119.579C115.834 119.579 108.523 126.891 108.523 135.91C108.523 144.93 115.834 152.241 124.854 152.241C133.873 152.241 141.184 144.929 141.184 135.91C141.184 126.891 133.873 119.579 124.854 119.579ZM124.854 144.983C119.843 144.983 115.781 140.921 115.781 135.911C115.781 130.9 119.843 126.838 124.854 126.838C129.864 126.838 133.926 130.9 133.926 135.911C133.927 140.921 129.864 144.983 124.854 144.983Z" fill="#01FFFF"/>
<path d="M161.689 24.3154C160.933 23.4898 159.899 22.973 158.786 22.8636L40.6581 21.2305L37.392 11.2503C35.091 4.57869 28.8434 0.0746733 21.7866 0H9.62912C7.62475 0 6 1.62475 6 3.62912C6 5.63349 7.62475 7.25825 9.62912 7.25825H21.7866C25.7325 7.34542 29.2071 9.87911 30.4967 13.6093L53.5415 83.1069L51.7272 87.2802C49.7033 92.499 50.3111 98.3729 53.3602 103.067C56.3802 107.677 61.4607 110.522 66.9695 110.688H137.556C139.56 110.688 141.185 109.063 141.185 107.059C141.185 105.055 139.56 103.43 137.556 103.43H66.9692C63.8583 103.352 60.9946 101.715 59.348 99.0748C57.7198 96.4665 57.3853 93.2531 58.4408 90.3648L59.8926 87.0986L136.285 79.1145C144.677 78.1903 151.579 72.0872 153.524 63.8721L162.234 27.3995C162.626 26.3493 162.418 25.168 161.689 24.3154ZM146.447 62.2393C145.269 67.5276 140.779 71.4283 135.378 71.8566L59.8926 79.6591L43.0171 28.4887L154.249 30.1218L146.447 62.2393Z" fill="#01FFFF"/>
<path d="M52.9002 119.579C43.8807 119.579 36.5693 126.891 36.5693 135.91C36.5693 144.93 43.8811 152.241 52.9002 152.241C61.9197 152.241 69.2311 144.929 69.2311 135.91C69.2314 126.891 61.9197 119.579 52.9002 119.579ZM52.9002 144.983C47.8895 144.983 43.8276 140.921 43.8276 135.911C43.8276 130.9 47.8895 126.838 52.9002 126.838C57.911 126.838 61.9729 130.9 61.9729 135.911C61.9732 140.921 57.911 144.983 52.9002 144.983Z" fill="#FFF8F8"/>
<path d="M121.854 119.579C112.834 119.579 105.523 126.891 105.523 135.91C105.523 144.93 112.834 152.241 121.854 152.241C130.873 152.241 138.184 144.929 138.184 135.91C138.184 126.891 130.873 119.579 121.854 119.579ZM121.854 144.983C116.843 144.983 112.781 140.921 112.781 135.911C112.781 130.9 116.843 126.838 121.854 126.838C126.864 126.838 130.926 130.9 130.926 135.911C130.927 140.921 126.864 144.983 121.854 144.983Z" fill="#FFF8F8"/>
<path d="M158.689 24.3154C157.933 23.4898 156.899 22.973 155.786 22.8636L37.6581 21.2305L34.392 11.2503C32.091 4.57869 25.8434 0.0746733 18.7866 0H6.62912C4.62475 0 3 1.62475 3 3.62912C3 5.63349 4.62475 7.25825 6.62912 7.25825H18.7866C22.7325 7.34542 26.2071 9.87911 27.4967 13.6093L50.5415 83.1069L48.7272 87.2802C46.7033 92.499 47.3111 98.3729 50.3602 103.067C53.3802 107.677 58.4607 110.522 63.9695 110.688H134.556C136.56 110.688 138.185 109.063 138.185 107.059C138.185 105.055 136.56 103.43 134.556 103.43H63.9692C60.8583 103.352 57.9946 101.715 56.348 99.0748C54.7198 96.4665 54.3853 93.2531 55.4408 90.3648L56.8926 87.0986L133.285 79.1145C141.677 78.1903 148.579 72.0872 150.524 63.8721L159.234 27.3995C159.626 26.3493 159.418 25.168 158.689 24.3154ZM143.447 62.2393C142.269 67.5276 137.779 71.4283 132.378 71.8566L56.8926 79.6591L40.0171 28.4887L151.249 30.1218L143.447 62.2393Z" fill="#FFF8F8"/>
</svg>
